<svg width="189" height="190" viewBox="0 0 189 190" fill="none" xmlns="http://www.w3.org/2000/svg">
<path fill-rule="evenodd" clip-rule="evenodd" d="M109.918 64.1002C134.058 42.4057 176.226 54.2508 173.607 89.8501C171.041 113.17 147.101 121.398 147.101 121.398C147.101 121.398 132.637 112.977 94.4147 112.977L94.3618 97.8854L109.918 64.1002Z" fill="url(#paint0_linear_2144_19)" stroke="black" stroke-width="3.77953"/>
<path fill-rule="evenodd" clip-rule="evenodd" d="M143.216 139.838L148.144 159.778C148.144 159.778 133.865 168.199 94.301 168.199C54.7369 168.199 40.4541 159.778 40.4541 159.778L45.3826 139.838L41.6182 121.401C41.6182 121.401 55.3946 112.977 94.3048 112.977C133.219 112.977 146.991 121.397 146.991 121.397L143.216 139.838Z" fill="url(#paint1_linear_2144_19)" stroke="black" stroke-width="3.77953"/>
<path d="M40.458 159.775C40.458 159.775 54.7408 151.354 94.3087 151.354C133.877 151.354 148.159 159.775 148.159 159.775M45.3865 139.838C45.3865 139.838 58.2142 131.417 94.4372 131.417C130.66 131.417 143.484 139.838 143.484 139.838" stroke="black" stroke-width="3.77953"/>
<path fill-rule="evenodd" clip-rule="evenodd" d="M78.8053 64.1002C54.6655 42.4057 12.4973 54.2508 15.1165 89.8501C17.6828 113.17 41.6223 121.398 41.6223 121.398C41.6223 121.398 56.0866 112.977 94.309 112.977L94.3619 97.8854L78.8053 64.1002Z" fill="url(#paint2_linear_2144_19)" stroke="black" stroke-width="3.77953"/>
<path fill-rule="evenodd" clip-rule="evenodd" d="M81.6396 30.5345H107.087H81.6396ZM94.3615 17V47.1606V17Z" fill="#59917A"/>
<path d="M81.6396 30.5345H107.087M94.3615 17V47.1606" stroke="black" stroke-width="3.77953" stroke-linecap="round" stroke-linejoin="round"/>
<g opacity="0.2" filter="url(#filter0_f_2144_19)">
<path fill-rule="evenodd" clip-rule="evenodd" d="M137.981 53.2678C135.764 53.2888 133.551 53.4734 131.361 53.8201C166.097 52.9728 182.743 99.0519 136.689 116.175L131.827 134.929L137.66 155.665L148.978 159.845L143.286 139.158L147.059 119.462C147.059 119.462 171.036 112.726 173.562 89.8829C175.496 72.3924 163.827 53.09 137.981 53.2678Z" fill="black"/>
</g>
<path fill-rule="evenodd" clip-rule="evenodd" d="M78.8053 64.0999L94.4148 96.8041L110.024 64.0999C110.024 64.0999 112.677 46.0791 94.4148 46.0791C76.1483 46.0791 78.8053 64.0999 78.8053 64.0999Z" fill="url(#paint3_linear_2144_19)" stroke="black" stroke-width="3.77953" stroke-linejoin="round"/>
<g opacity="0.2" filter="url(#filter1_f_2144_19)">
<path fill-rule="evenodd" clip-rule="evenodd" d="M94.4072 46.9512C112.59 50.6203 97.7212 86.7437 94.4685 96.828C94.5602 96.9225 106.233 76.3871 109.834 63.1141C110.178 46.0775 95.0532 46.5011 94.4072 46.9512Z" fill="black"/>
</g>
<g opacity="0.2" filter="url(#filter2_f_2144_19)">
<path fill-rule="evenodd" clip-rule="evenodd" d="M94.369 111.028V110.744L94.4263 97.8984C94.4263 97.8984 84.1789 71.8177 78.9386 64.1808C73.8435 56.7556 64.4983 53.0979 53.8457 53.6502C69.0276 60.3264 88.005 91.5853 94.369 111.028Z" fill="black"/>
</g>
<g opacity="0.3" filter="url(#filter3_f_2144_19)">
<path fill-rule="evenodd" clip-rule="evenodd" d="M23.6767 104.674C19.1564 98.4487 16.0799 90.1224 18.2153 79.5927C23.6427 52.8563 53.9583 55.7968 53.9583 55.7968C10.1309 68.9042 24.2058 104.787 23.6767 104.674Z" fill="white"/>
</g>
<g opacity="0.25" filter="url(#filter4_f_2144_19)">
<path fill-rule="evenodd" clip-rule="evenodd" d="M88.8963 80.0989L80.9063 63.4615C80.9063 63.4615 78.2985 47.8898 94.2859 48.1317C78.3665 53.1585 88.8963 80.0989 88.8963 80.0989Z" fill="white"/>
</g>
<g opacity="0.2" filter="url(#filter5_f_2144_19)">
<path fill-rule="evenodd" clip-rule="evenodd" d="M101.958 87.4082L112.36 64.9994C112.36 64.9994 121.608 56.5975 135.475 55.2822C120.558 59.1827 111.551 73.7074 101.958 87.4082Z" fill="white"/>
</g>
<path opacity="0.15" fill-rule="evenodd" clip-rule="evenodd" d="M95.5031 151.528C56.5323 151.528 40.458 159.779 40.458 159.779C40.458 159.779 56.5323 168.026 95.5031 168.026H95.5824C37.2265 160.505 123.23 153.652 126.892 153.626C118.679 152.428 108.308 151.528 95.5031 151.528Z" fill="black"/>
<path opacity="0.2" fill-rule="evenodd" clip-rule="evenodd" d="M94.3013 168.052C59.3747 168.052 42.3555 159.703 42.3555 159.703C42.3555 159.703 59.3747 151.354 94.3013 151.354C129.228 151.354 146.247 159.707 146.247 159.707C146.247 159.707 129.228 168.049 94.3013 168.049V168.052Z" fill="black"/>
<g opacity="0.1" filter="url(#filter6_f_2144_19)">
<path fill-rule="evenodd" clip-rule="evenodd" d="M47.1628 141.115C50.3754 139.415 53.6977 138.685 56.9632 137.479C54.7446 140.658 54.5669 147.775 55.6139 152.832C55.6139 152.832 52.2425 153.304 43.3984 156.252L47.1628 141.115Z" fill="white"/>
</g>
<g opacity="0.15" filter="url(#filter7_f_2144_19)">
<path fill-rule="evenodd" clip-rule="evenodd" d="M46.9209 136.776C46.9209 136.776 48.0548 135.688 56.0523 133.462C50.0428 127.411 50.7609 120.437 50.0995 120.173C47.9603 120.808 45.9004 121.647 43.8633 122.546L46.9209 136.776Z" fill="white"/>
</g>
<defs>
<filter id="filter0_f_2144_19" x="128.38" y="50.2856" width="48.3693" height="112.54" filterUnits="userSpaceOnUse" color-interpolation-filters="sRGB">
<feFlood flood-opacity="0" result="BackgroundImageFix"/>
<feBlend mode="normal" in="SourceGraphic" in2="BackgroundImageFix" result="shape"/>
<feGaussianBlur stdDeviation="1.49052" result="effect1_foregroundBlur_2144_19"/>
</filter>
<filter id="filter1_f_2144_19" x="93.0992" y="45.5006" width="18.0481" height="52.6355" filterUnits="userSpaceOnUse" color-interpolation-filters="sRGB">
<feFlood flood-opacity="0" result="BackgroundImageFix"/>
<feBlend mode="normal" in="SourceGraphic" in2="BackgroundImageFix" result="shape"/>
<feGaussianBlur stdDeviation="0.654003" result="effect1_foregroundBlur_2144_19"/>
</filter>
<filter id="filter2_f_2144_19" x="51.8837" y="51.6337" width="44.5046" height="61.3557" filterUnits="userSpaceOnUse" color-interpolation-filters="sRGB">
<feFlood flood-opacity="0" result="BackgroundImageFix"/>
<feBlend mode="normal" in="SourceGraphic" in2="BackgroundImageFix" result="shape"/>
<feGaussianBlur stdDeviation="0.981004" result="effect1_foregroundBlur_2144_19"/>
</filter>
<filter id="filter3_f_2144_19" x="13.6825" y="51.8612" width="44.116" height="56.6527" filterUnits="userSpaceOnUse" color-interpolation-filters="sRGB">
<feFlood flood-opacity="0" result="BackgroundImageFix"/>
<feBlend mode="normal" in="SourceGraphic" in2="BackgroundImageFix" result="shape"/>
<feGaussianBlur stdDeviation="1.92" result="effect1_foregroundBlur_2144_19"/>
</filter>
<filter id="filter4_f_2144_19" x="78.7" y="46.0804" width="17.6341" height="36.0667" filterUnits="userSpaceOnUse" color-interpolation-filters="sRGB">
<feFlood flood-opacity="0" result="BackgroundImageFix"/>
<feBlend mode="normal" in="SourceGraphic" in2="BackgroundImageFix" result="shape"/>
<feGaussianBlur stdDeviation="1.02425" result="effect1_foregroundBlur_2144_19"/>
</filter>
<filter id="filter5_f_2144_19" x="99.0029" y="52.3266" width="39.4283" height="38.0372" filterUnits="userSpaceOnUse" color-interpolation-filters="sRGB">
<feFlood flood-opacity="0" result="BackgroundImageFix"/>
<feBlend mode="normal" in="SourceGraphic" in2="BackgroundImageFix" result="shape"/>
<feGaussianBlur stdDeviation="1.4778" result="effect1_foregroundBlur_2144_19"/>
</filter>
<filter id="filter6_f_2144_19" x="40.8132" y="134.894" width="18.7353" height="23.9429" filterUnits="userSpaceOnUse" color-interpolation-filters="sRGB">
<feFlood flood-opacity="0" result="BackgroundImageFix"/>
<feBlend mode="normal" in="SourceGraphic" in2="BackgroundImageFix" result="shape"/>
<feGaussianBlur stdDeviation="1.2926" result="effect1_foregroundBlur_2144_19"/>
</filter>
<filter id="filter7_f_2144_19" x="41.5578" y="117.867" width="16.8" height="21.2145" filterUnits="userSpaceOnUse" color-interpolation-filters="sRGB">
<feFlood flood-opacity="0" result="BackgroundImageFix"/>
<feBlend mode="normal" in="SourceGraphic" in2="BackgroundImageFix" result="shape"/>
<feGaussianBlur stdDeviation="1.15276" result="effect1_foregroundBlur_2144_19"/>
</filter>
<linearGradient id="paint0_linear_2144_19" x1="92.5346" y1="87.4244" x2="175.668" y2="87.4244" gradientUnits="userSpaceOnUse">
<stop stop-color="#737373"/>
<stop offset="1" stop-color="#303030"/>
</linearGradient>
<linearGradient id="paint1_linear_2144_19" x1="38.3349" y1="140.607" x2="150.365" y2="140.607" gradientUnits="userSpaceOnUse">
<stop stop-color="#737373"/>
<stop offset="1" stop-color="#303030"/>
</linearGradient>
<linearGradient id="paint2_linear_2144_19" x1="13.1468" y1="87.4244" x2="96.3186" y2="87.4244" gradientUnits="userSpaceOnUse">
<stop stop-color="#737373"/>
<stop offset="1" stop-color="#303030"/>
</linearGradient>
<linearGradient id="paint3_linear_2144_19" x1="76.8252" y1="71.4617" x2="112.104" y2="71.4617" gradientUnits="userSpaceOnUse">
<stop stop-color="#737373"/>
<stop offset="1" stop-color="#303030"/>
</linearGradient>
</defs>
</svg>
